<?xml version="1.0" encoding="UTF-8"?>
<!DOCTYPE svg PUBLIC "-//W3C//DTD SVG 1.1//EN" "http://www.w3.org/Graphics/SVG/1.1/DTD/svg11.dtd">
<!-- Creator: CorelDRAW 2018 (64 Bit Versão de avaliação) -->
<svg xmlns="http://www.w3.org/2000/svg" xml:space="preserve" width="49.12mm" height="14.0921mm" version="1.1" style="shape-rendering:geometricPrecision; text-rendering:geometricPrecision; image-rendering:optimizeQuality; fill-rule:evenodd; clip-rule:evenodd"
viewBox="0 0 6285.26 1803.19"
 xmlns:xlink="http://www.w3.org/1999/xlink">
 <defs>
  <style type="text/css">
   <![CDATA[
    .fil0 {fill:#334155}
    .fil1 {fill:#334155;fill-rule:nonzero}
   ]]>
  </style>
 </defs>
 <g id="Camada_x0020_1">
  <metadata id="CorelCorpID_0Corel-Layer"/>
  <g id="_2262077496096">
   <path class="fil0" d="M1068.97 44.58c450.15,0 676.61,367.17 567.31,775.78 -113.49,424.27 -553.25,787.26 -997.3,787.26 -450.15,0 -676.61,-367.16 -567.31,-775.77 113.47,-424.27 553.26,-787.27 997.3,-787.27zm610.32 787.27c116.8,-436.69 -130.86,-831.85 -610.32,-831.85 -463.81,0 -921.73,376.94 -1040.32,820.36 -116.8,436.69 130.87,831.85 610.33,831.85 463.81,0 921.71,-376.94 1040.31,-820.36z"/>
   <path class="fil0" d="M952.89 539.48c-11.39,24.25 -21.25,50.22 -29.75,77.68 -24.47,65.71 -44.8,138.28 -66.93,208.83l549.63 0.01c-150.96,459.75 -563.68,628.58 -880.19,603.09 -86.74,-6.97 -205.53,-27.93 -329.8,-93.59 85.69,130.79 236.27,211.71 431.32,211.71 389.45,0 808.69,-322.66 936.39,-720.66 43.08,-134.29 45.99,-265.93 -52.28,-378.73 -160.59,-184.34 -464,-135.94 -558.38,91.66z"/>
   <path class="fil0" d="M759.87 1111.41c11.4,-24.26 21.27,-50.22 29.76,-77.7 24.45,-65.69 44.43,-137.17 66.56,-207.73l-550.91 -0.01c150.96,-459.76 565.33,-629.67 881.83,-604.19 86.77,6.99 205.55,27.95 329.81,93.6 -85.69,-130.79 -236.29,-211.72 -431.31,-211.72 -389.46,0 -808.7,322.67 -936.4,720.66 -42.12,131.31 -44.98,254.1 40.08,363.89 154.94,199.98 472.99,158.53 570.57,-76.8z"/>
   <path class="fil1" d="M1842.18 639.85l0 -64.8c23.62,7.88 55.32,11.76 95.1,11.76 8.64,0 17.8,-0.22 27.5,-0.65 55.1,0 82.7,-19.18 82.7,-57.47 0,-26.95 -33.1,-50.47 -99.53,-70.4 -66.31,-20.06 -99.4,-59.74 -99.4,-119.15 0,-81.73 49.26,-122.58 147.83,-122.58 41.61,0 77.2,5.91 106.73,17.67l0 64.81c-23.61,-7.77 -51.75,-11.64 -84.31,-11.64 -7.22,0 -14.66,0.1 -22.42,0.54 -40.45,0 -60.7,19.18 -60.7,57.57 0,20.59 33.2,42.48 99.51,65.67 66.32,23.19 99.51,64.48 99.51,123.79 0,81.73 -56.71,122.58 -169.93,122.58 -52.28,0 -93.15,-5.92 -122.6,-17.68zm688.06 -420.07l0 186.32 133.92 0 0 -186.32 87.11 0 0 434.63 -87.11 0 0 -180.06 -133.92 0 0 180.06 -87.23 0 0 -434.63 87.23 0zm689.91 68.15c-48.85,0 -73.22,28.68 -73.22,85.92l0 126.37c0,57.26 24.36,85.94 73.22,85.94 50.99,0 76.44,-28.68 76.44,-85.94l0 -126.37c0,-57.25 -25.45,-85.92 -76.44,-85.92zm163.66 85.92l0 126.37c0,104.91 -54.55,157.31 -163.66,157.31 -106.97,0 -160.45,-52.4 -160.45,-157.31l0 -126.37c0,-104.8 53.47,-157.3 160.45,-157.3 109.11,0 163.66,52.5 163.66,157.3zm308.31 280.56l0 -434.63 154.19 0c102.75,0 154.09,40.75 154.09,122.48l0 31.59c0,81.74 -51.34,122.6 -154.09,122.6l-66.96 0 0 157.96 -87.23 0zm87.23 -229.34l66.96 0c44.63,0 66.96,-22.32 66.96,-66.96 0,-44.63 -22.33,-66.96 -66.96,-66.96l-66.96 0 0 133.92zm529.46 229.34l0 -434.63 154.18 0c102.76,0 154.09,40.75 154.09,122.48l0 31.59c0,81.74 -51.32,122.6 -154.09,122.6l-66.95 0 0 157.96 -87.23 0zm87.23 -229.34l66.95 0c44.64,0 66.96,-22.32 66.96,-66.96 0,-44.63 -22.32,-66.96 -66.96,-66.96l-66.95 0 0 133.92zm616.68 -205.29l0 434.63 -87.23 0 0 -434.63 87.23 0zm397.05 0l132.41 278.29 0 -278.29 87.11 0 0 434.63 -88.74 0 -132.3 -278.28 0 278.28 -87.23 0 0 -434.63 88.74 0zm804.62 14.45l0 64.81c-23.52,-7.77 -55.21,-11.64 -95,-11.64 -8.74,0 -17.79,0.1 -27.5,0.54 -44.63,0 -66.96,22.32 -66.96,66.95l0 164.32c0,44.64 22.33,66.96 66.96,66.96 2.92,0.22 5.71,0.32 8.52,0.32 18.98,0 38.39,-5.92 58.44,-17.67l0 -143.73 87.13 0 0 186.97c-40.43,30.4 -91.76,45.49 -154.09,45.49 -102.75,0 -154.18,-40.86 -154.18,-122.58l0 -195.81c0,-81.73 51.43,-122.58 154.18,-122.58 52.19,0 93.06,5.91 122.49,17.67z"/>
   <path class="fil1" d="M1818.43 1429.59l0 -662.95 230.46 0c159.83,0 239.75,63.39 239.75,190.34 0,76.22 -34.19,123.25 -102.54,141.06 74.62,17.98 111.85,64.99 111.85,141.06 0,126.95 -79.91,190.49 -239.75,190.49l-239.77 0zm150.38 -272.82l0 150.54 89.39 0c59.54,0 89.38,-25.85 89.38,-77.53 0,-48.62 -29.84,-73.01 -89.38,-73.01l-89.39 0zm0 -112.82l80.09 0c59.53,0 89.22,-25.83 89.22,-77.5 0,-51.68 -29.7,-77.68 -89.22,-77.68l-80.09 0 0 155.19zm625.49 -159.84c-65.8,0 -98.85,39.96 -98.85,119.88l0 188.1c0,79.91 33.05,119.87 98.85,119.87 68.85,0 103.35,-39.96 103.35,-119.87l0 -188.1c0,-79.92 -34.5,-119.88 -103.35,-119.88zm253.89 119.88l0 188.1c0,161.44 -84.75,242.16 -253.89,242.16 -166.09,0 -249.22,-80.72 -249.22,-242.16l0 -188.1c0,-161.44 83.13,-242.17 249.22,-242.17 169.15,0 253.89,80.73 253.89,242.17zm46.96 425.6l0 -662.95 239.75 0c159.83,0 239.75,63.39 239.75,190.34l0 47.01c0,72.71 -38.99,127.75 -116.99,165.14l117.96 260.46 -159.84 0 -94.04 -235.11 -76.22 0 0 235.11 -150.38 0zm150.38 -357.38l89.38 0c59.54,0 89.38,-30.49 89.38,-91.64 0,-61.14 -29.84,-91.8 -89.38,-91.8l-89.38 0 0 183.44zm376.26 357.38l0 -662.95 239.75 0c159.84,0 239.77,63.39 239.77,190.34l0 47.01c0,72.71 -39,127.75 -116.99,165.14l117.95 260.46 -159.83 0 -94.05 -235.11 -76.22 0 0 235.11 -150.38 0zm150.38 -357.38l89.38 0c59.55,0 89.39,-30.49 89.39,-91.64 0,-61.14 -29.84,-91.8 -89.39,-91.8l-89.38 0 0 183.44zm305.82 357.38l170.11 -662.95 196.58 0 165.46 662.95 -155.19 0 -29.21 -126.93 -162.56 0 -30.17 126.93 -155.02 0zm214.24 -249.22l105.91 0 -51.84 -226.6 -54.07 226.6zm537.87 -296.26c-59.55,0 -89.22,39.96 -89.22,119.88l0 188.1c0,79.91 29.67,119.87 89.22,119.87 59.38,0 121.96,-6.59 188.08,-19.74l0 112.35c-49.11,19.73 -113.46,29.69 -192.74,29.69 -159.83,0 -239.75,-80.72 -239.75,-242.16l0 -188.1c0,-161.44 79.92,-242.17 239.75,-242.17 79.28,0 143.63,9.97 192.74,29.7l0 113.29c-42.85,-14.43 -94.2,-21.66 -153.74,-21.66 -11.23,0 -22.64,0.32 -34.34,0.96zm385.57 -117.46l0 277.31 178.78 0 0 -277.31 150.38 0 0 662.95 -150.38 0 0 -268.01 -178.78 0 0 268.01 -150.38 0 0 -662.95 150.38 0zm305.82 662.95l170.11 -662.95 196.59 0 165.46 662.95 -155.2 0 -29.2 -126.93 -162.57 0 -30.17 126.93 -155.02 0zm214.24 -249.22l105.92 0 -51.84 -226.6 -54.09 226.6zm293.46 224.19l0 -113.31c43.01,14.45 95.48,21.66 157.43,21.66 11.4,0 23.11,-0.32 35.3,-0.96 75.28,0 112.82,-25.85 112.82,-77.52 0,-36.75 -49.26,-69.97 -148.12,-99.65 -98.69,-29.85 -147.97,-90.67 -147.97,-182.47 0,-126.95 76.72,-190.5 230.3,-190.5 63.71,0 120.05,9.97 169.31,29.7l0 113.29c-43.01,-14.43 -89.86,-21.66 -140.57,-21.66 -9.47,0 -18.95,0.32 -28.74,0.96 -53.27,0 -79.92,25.85 -79.92,77.68 0,27.43 49.44,58.58 148.14,93.08 98.69,34.51 148.12,97.41 148.12,188.89 0,126.93 -87.79,190.49 -263.36,190.49 -79.27,0 -143.47,-9.96 -192.73,-29.69z"/>
   <path class="fil1" d="M3089.53 1542.32l0 146.68c0,21.87 10.94,32.8 32.81,32.8 21.86,0 32.8,-10.93 32.8,-32.8l0 -146.68 42.69 0 0 154.38c0,40.04 -25.14,60.06 -75.48,60.06 -50.34,0 -75.53,-20.03 -75.53,-60.06l0 -154.38 42.72 0zm266.79 212.91l0 -106.49c0,-16.69 -7.34,-25.03 -21.97,-25.03l-28.15 0 0 131.51 -42.74 0 0 -164.95 67.77 -1.59c45.22,0 67.77,20.55 67.77,61.64l0 104.9 -42.67 0zm201.19 -127.82c-9.2,-3.48 -18.59,-5.28 -28.15,-5.28 -14.69,0 -21.97,8.41 -21.97,25.09l0 49.48c0,16.75 7.28,25.09 21.97,25.09l28.15 0 0 -94.38zm0 -85.09l42.67 0 0 212.91 -67.77 1.54c-45.16,0 -67.77,-20.55 -67.77,-61.59l0 -46.44c0,-41.04 17.43,-61.57 52.28,-61.57 15.06,0 28.57,3.63 40.58,10.83l0 -55.67zm243.86 205.78c-19.59,5.76 -40.61,8.66 -63.12,8.66 -48.28,0 -72.41,-20.03 -72.41,-60.06l0 -47.96c0,-41.04 22.61,-61.57 67.77,-61.57 45.21,0 67.77,20.54 67.77,61.57l0 36.81 -92.81 0 0 11.15c0,16.75 9.88,25.09 29.69,25.09 4.02,0.22 8.04,0.32 12.09,0.32 18.12,0 35.18,-1.96 51.03,-5.86l0 31.85zm-92.81 -89.74l50.12 0 0 -9.46c0,-17.85 -8.19,-26.78 -24.61,-26.78 -17.01,0.52 -25.51,9.46 -25.51,26.78l0 9.46zm239.69 -34.65l-13.46 0c-10.72,0 -19.08,1.79 -25.04,5.39l0 126.13 -42.72 0 0 -150.58c9.61,-10.62 32.16,-15.96 67.77,-15.96l13.46 0.32 0 34.7zm185.65 -27.89l0 31.75c-11.5,-3.8 -25.3,-5.76 -41.3,-5.76 -3.48,0 -7.18,0.12 -10.98,0.32 -16.7,0 -25.03,8.41 -25.03,25.09l0 49.48c0,16.75 8.33,25.09 25.03,25.09 3.8,0.22 7.5,0.32 10.98,0.32 16.01,0 29.8,-1.91 41.3,-5.76l0 31.75c-14.42,5.76 -31.85,8.66 -52.28,8.66 -45.16,0 -67.77,-20.03 -67.77,-60.06l0 -49.48c0,-40.04 22.61,-60.05 67.77,-60.05 20.43,0 37.86,2.89 52.28,8.65zm73.37 0c16.31,-6.6 33.86,-9.88 52.65,-9.88 9.57,0 19.55,0.86 29.85,2.65 30.21,5.02 45.31,25.09 45.31,60.15l0 108.02 -67.77 0c-45.16,0 -67.75,-16.38 -67.75,-49.23 0,-32.81 30.95,-49.17 92.85,-49.17l0 -9.62c0,-17.73 -7.82,-26.62 -23.4,-26.62 -3.48,-0.42 -7.13,-0.58 -10.98,-0.58 -14.32,0 -31.22,3.01 -50.76,9.08l0 -34.82zm85.14 89.74c-33.44,0 -50.12,6.35 -50.12,18.91 0,11.57 8.34,17.33 25.03,17.33l25.09 0 0 -36.24zm189.57 -61.84l-13.47 0c-10.72,0 -19.07,1.79 -25.03,5.39l0 126.13 -42.74 0 0 -150.58c9.61,-10.62 32.17,-15.96 67.77,-15.96l13.47 0.32 0 34.7zm127.5 124.39l0 -31.75c11.57,3.85 27.1,5.76 46.59,5.76 4.22,0 8.71,-0.1 13.46,-0.32 27,0 40.52,-9.4 40.52,-28.15 0,-13.21 -16.22,-24.72 -48.75,-34.48 -32.49,-9.83 -48.7,-29.26 -48.7,-58.37 0,-40.03 24.13,-60.05 72.41,-60.05 20.38,0 37.82,2.9 52.28,8.66l0 31.75c-11.57,-3.8 -25.35,-5.71 -41.3,-5.71 -3.53,0 -7.18,0.05 -10.98,0.27 -19.81,0 -29.74,9.39 -29.74,28.2 0,10.08 16.28,20.81 48.75,32.17 32.49,11.35 48.75,31.58 48.75,60.63 0,40.04 -27.78,60.06 -83.25,60.06 -25.6,0 -45.63,-2.9 -60.05,-8.66zm251.63 -30.01c9.14,3.49 18.54,5.23 28.15,5.23 14.64,0 21.97,-8.34 21.97,-25.04l0 -49.55c0,-16.69 -7.33,-25.03 -21.97,-25.03l-28.15 0 0 94.38zm0 85.09l-42.74 0 0 -212.91 67.77 -1.59c45.22,0 67.77,20.55 67.77,61.64l0 46.37c0,41.1 -17.43,61.59 -52.28,61.59 -15.06,0 -28.57,-3.58 -40.51,-10.83l0 55.73zm293.98 -55.09c-19.59,5.76 -40.61,8.66 -63.12,8.66 -48.27,0 -72.41,-20.03 -72.41,-60.06l0 -47.96c0,-41.04 22.61,-61.57 67.77,-61.57 45.22,0 67.77,20.54 67.77,61.57l0 36.81 -92.79 0 0 11.15c0,16.75 9.87,25.09 29.67,25.09 4.02,0.22 8.04,0.32 12.1,0.32 18.12,0 35.18,-1.96 51.02,-5.86l0 31.85zm-92.79 -89.74l50.12 0 0 -9.46c0,-17.85 -8.19,-26.78 -24.61,-26.78 -17.01,0.52 -25.51,9.46 -25.51,26.78l0 9.46zm278.51 -62.55l0 31.75c-11.52,-3.8 -25.3,-5.76 -41.32,-5.76 -3.48,0 -7.18,0.12 -10.98,0.32 -16.69,0 -25.03,8.41 -25.03,25.09l0 49.48c0,16.75 8.34,25.09 25.03,25.09 3.8,0.22 7.5,0.32 10.98,0.32 16.02,0 29.8,-1.91 41.32,-5.76l0 31.75c-14.43,5.76 -31.86,8.66 -52.3,8.66 -45.16,0 -67.77,-20.03 -67.77,-60.06l0 -49.48c0,-40.04 22.61,-60.05 67.77,-60.05 20.43,0 37.86,2.89 52.3,8.65zm108.38 -7.13l0 166.54 -42.74 0 0 -166.54 42.74 0zm0 -40.51c0,5.86 -2.11,10.88 -6.28,15.11 -4.17,4.17 -9.19,6.23 -15.11,6.23 -5.86,0 -10.88,-2.06 -15.05,-6.23 -4.17,-4.24 -6.3,-9.25 -6.3,-15.11 0,-5.86 2.12,-10.93 6.3,-15.1 4.17,-4.17 9.19,-6.23 15.05,-6.23 5.92,0 10.94,2.06 15.11,6.23 4.17,4.17 6.28,9.24 6.28,15.1zm73.32 47.64c16.31,-6.6 33.84,-9.88 52.65,-9.88 9.56,0 19.54,0.86 29.84,2.65 30.21,5.02 45.31,25.09 45.31,60.15l0 108.02 -67.77 0c-45.14,0 -67.77,-16.38 -67.77,-49.23 0,-32.81 30.95,-49.17 92.86,-49.17l0 -9.62c0,-17.73 -7.82,-26.62 -23.4,-26.62 -3.48,-0.42 -7.13,-0.58 -10.98,-0.58 -14.32,0 -31.22,3.01 -50.75,9.08l0 -34.82zm85.13 89.74c-33.44,0 -50.12,6.35 -50.12,18.91 0,11.57 8.34,17.33 25.03,17.33l25.09 0 0 -36.24zm151.07 -143.24l0 212.91 -42.74 0 0 -212.91 42.74 0zm108.33 46.37l0 166.54 -42.72 0 0 -166.54 42.72 0zm0 -40.51c0,5.86 -2.11,10.88 -6.3,15.11 -4.16,4.17 -9.19,6.23 -15.1,6.23 -5.86,0 -10.88,-2.06 -15.05,-6.23 -4.17,-4.24 -6.28,-9.25 -6.28,-15.11 0,-5.86 2.11,-10.93 6.28,-15.1 4.17,-4.17 9.19,-6.23 15.05,-6.23 5.91,0 10.94,2.06 15.1,6.23 4.18,4.17 6.3,9.24 6.3,15.1zm65.6 168.17c14.04,4.64 34.06,7.5 60.05,8.56 21.87,0 32.8,-5.81 32.8,-17.38 0,-10.3 -11.87,-17.59 -35.6,-21.98 -36.14,-8.02 -54.14,-24.4 -54.14,-49.17 0,-34.86 24.13,-52.28 72.41,-52.28 18.32,1 34.77,4.86 49.17,11.57l0 31.9c-14,-4.64 -30.42,-7.5 -49.17,-8.5 -19.79,0 -29.72,5.22 -29.72,15.79 0,9.03 10.83,16.9 32.48,23.51 38.18,8.02 57.26,24.45 57.26,49.17 0,34.91 -25.14,52.33 -75.48,52.33 -25.62,-2.06 -45.63,-6.01 -60.05,-11.77l0 -31.75zm224.36 -174.03l42.74 0 0 46.37 46.42 0 0 35.02 -46.42 0 0 74.57c0,14.64 7.34,21.98 21.97,21.98 7.34,0 15.48,-0.96 24.45,-2.8l0 30.79c-9.3,4.66 -21.55,6.97 -36.81,6.97 -34.86,0 -52.35,-17.43 -52.35,-52.28l0 -79.23 -23.19 0 0 -35.02 23.19 0 0 -46.37z"/>
  </g>
 </g>
</svg>
